<svg width="41" height="41" viewBox="0 0 41 41" fill="none" xmlns="http://www.w3.org/2000/svg">
<path d="M20.397 0.862793C9.34737 0.862793 0.396973 9.8132 0.396973 20.8628C0.396973 31.9124 9.34737 40.8628 20.397 40.8628C31.4466 40.8628 40.397 31.9124 40.397 20.8628C40.4085 9.8132 31.4466 0.862793 20.397 0.862793ZM10.397 21.4626C12.1501 18.7405 13.8918 16.007 15.6334 13.2734C15.818 12.9851 15.991 12.9158 16.1524 13.2849C16.7638 14.7382 17.2828 16.2146 17.4673 17.7947C17.6403 19.3172 16.9137 20.5398 16.2101 21.774C16.0717 22.0047 15.8526 21.9701 15.6449 21.9701C14.8145 21.9701 13.9956 21.9701 13.1651 21.9701C12.3347 21.9701 11.5158 21.9701 10.6853 21.9701C10.2586 21.9701 10.1432 21.8432 10.397 21.4626ZM33.4304 25.165C32.45 25.5341 31.7695 26.2953 31.2274 27.195C30.6392 28.1754 30.0394 29.1673 29.3012 30.0554C28.4477 31.0704 27.4097 31.601 26.0486 31.5894C22.6346 31.5548 19.209 31.5894 15.7949 31.5779C12.2886 31.5664 9.49732 29.2365 8.82834 25.7994C8.53999 24.2999 8.53999 24.2999 10.0509 24.2999C11.5273 24.2999 13.0037 24.3115 14.4915 24.2884C14.9183 24.2884 15.1259 24.3345 15.149 24.8651C15.1836 25.9839 16.0948 26.8259 17.2251 26.849C18.0902 26.872 18.9552 26.8374 19.8203 26.8605C20.1432 26.872 20.2701 26.7682 20.2586 26.4337C20.2355 25.9493 20.2355 25.4764 20.2586 24.992C20.2701 24.646 20.1663 24.5191 19.8087 24.5306C19.0821 24.5537 18.3439 24.5421 17.6173 24.5421C17.4443 24.5421 17.2366 24.5883 17.1559 24.4037C17.0752 24.2423 17.2366 24.1269 17.3174 24C17.7211 23.3311 18.1363 22.6506 18.54 21.9816C19.7741 19.9631 19.8203 17.8178 19.1974 15.6033C18.7361 13.9539 18.0902 12.3737 17.3058 10.8628C17.2136 10.7013 17.0867 10.5398 17.1098 10.24C18.0325 10.4937 18.8975 10.7129 19.7626 10.9666C20.1317 11.0704 20.3047 11.0127 20.2701 10.5975C20.247 10.2746 20.247 9.94007 20.2816 9.61712C20.3508 8.99428 20.8353 8.55599 21.435 8.55599C22.0002 8.55599 22.4846 8.98275 22.5884 9.57098C22.6 9.60559 22.6 9.65172 22.6 9.68632C22.6461 10.3668 22.3347 11.2088 22.7153 11.7048C23.0959 12.2123 23.7764 12.5583 24.2839 13.0197C25.5757 14.2077 26.7407 15.4995 27.4789 17.1258C28.1363 18.5675 28.0325 19.9516 27.2251 21.3011C26.5446 22.4314 25.7026 23.4118 24.7453 24.3115C24.5492 24.496 24.3416 24.5767 24.0763 24.5652C23.7303 24.5537 23.3843 24.5883 23.0383 24.5537C22.6692 24.5191 22.5769 24.6806 22.6 25.015C22.6346 25.6033 22.4154 26.3761 22.7038 26.7451C23.0152 27.1373 23.8226 26.8144 24.4108 26.872C25.3681 26.9643 26.164 26.6298 26.7522 25.9032C27.3751 25.1419 28.1709 24.7498 29.1167 24.5075C30.6968 24.1039 32.2539 23.631 33.811 23.1581C34.2147 23.0427 34.3531 23.135 34.3185 23.5272C34.3185 23.5502 34.3185 23.5618 34.3185 23.5848C34.4223 24.3345 34.2609 24.8536 33.4304 25.165Z" fill="#F9F9F9"/>
</svg>
