<svg width="24" height="18" viewBox="0 0 24 18" fill="none" xmlns="http://www.w3.org/2000/svg">
<path d="M9.76192 10.6687C9.76192 10.8685 9.70226 11.0638 9.59047 11.2299C9.47869 11.396 9.31981 11.5255 9.13392 11.6019C8.94803 11.6784 8.74348 11.6984 8.54614 11.6594C8.3488 11.6204 8.16754 11.5242 8.02526 11.383C7.88299 11.2417 7.7861 11.0617 7.74685 10.8658C7.70759 10.6698 7.72774 10.4667 7.80474 10.2822C7.88174 10.0976 8.01213 9.93985 8.17942 9.82886C8.34672 9.71787 8.5434 9.65863 8.74461 9.65863C9.01442 9.65863 9.27318 9.76505 9.46396 9.95447C9.65474 10.1439 9.76192 10.4008 9.76192 10.6687ZM15.2554 9.65863C15.0542 9.65863 14.8575 9.71787 14.6902 9.82886C14.5229 9.93985 14.3925 10.0976 14.3155 10.2822C14.2385 10.4667 14.2184 10.6698 14.2576 10.8658C14.2969 11.0617 14.3938 11.2417 14.5361 11.383C14.6783 11.5242 14.8596 11.6204 15.0569 11.6594C15.2543 11.6984 15.4588 11.6784 15.6447 11.6019C15.8306 11.5255 15.9895 11.396 16.1013 11.2299C16.2131 11.0638 16.2727 10.8685 16.2727 10.6687C16.2727 10.4008 16.1655 10.1439 15.9748 9.95447C15.784 9.76505 15.5252 9.65863 15.2554 9.65863ZM23.5055 14.8126C21.8436 16.247 19.6058 17.3349 17.0342 17.9591C16.7214 18.0357 16.3916 18.0038 16.0995 17.8687C15.8075 17.7336 15.5708 17.5034 15.4287 17.2163L14.3991 15.1721C13.603 15.2675 12.8019 15.3152 12 15.3151C11.1981 15.3152 10.397 15.2674 9.60088 15.172L8.57136 17.2164C8.42924 17.5035 8.19251 17.7337 7.90047 17.8688C7.60843 18.0039 7.27864 18.0358 6.96584 17.9592C4.39408 17.3349 2.1565 16.247 0.494621 14.8127C0.286604 14.6338 0.134894 14.3991 0.0576259 14.1368C-0.0196418 13.8745 -0.0191974 13.5957 0.058906 13.3336L3.51512 1.89475C3.57571 1.69295 3.68102 1.50717 3.82335 1.35105C3.96567 1.19493 4.14139 1.07243 4.33762 0.992533C5.3474 0.582049 6.39173 0.260938 7.45842 0.0329443C7.8021 -0.0420286 8.16156 0.0119819 8.46751 0.184563C8.77345 0.357145 9.00422 0.636077 9.11532 0.967583L9.76843 2.91302C11.2516 2.74895 12.7485 2.74895 14.2316 2.91302L14.8847 0.967583C14.9959 0.636151 15.2266 0.357291 15.5325 0.184724C15.8384 0.0121572 16.1978 -0.0419078 16.5415 0.0329443C17.6083 0.260972 18.6527 0.582117 19.6626 0.992634C19.8588 1.0725 20.0345 1.19497 20.1768 1.35105C20.3191 1.50714 20.4243 1.69288 20.4849 1.89465L23.9411 13.3337C24.0192 13.5958 24.0196 13.8746 23.9424 14.1368C23.8651 14.3991 23.7135 14.6337 23.5055 14.8126ZM22.7719 13.682L19.3155 2.24293C19.3067 2.21386 19.2915 2.18711 19.271 2.16465C19.2504 2.14219 19.2251 2.12458 19.1968 2.11313C18.2536 1.72992 17.2782 1.4302 16.282 1.21748C16.2325 1.20646 16.1808 1.21398 16.1366 1.2386C16.0924 1.26321 16.059 1.30318 16.0427 1.35081L15.4589 3.0908C16.1977 3.22051 16.9267 3.39991 17.641 3.62776C17.7178 3.65186 17.789 3.69082 17.8506 3.74238C17.9122 3.79395 17.9629 3.8571 17.9998 3.92821C18.0366 3.99931 18.059 4.07696 18.0655 4.15668C18.072 4.2364 18.0625 4.3166 18.0377 4.39268C18.0128 4.46875 17.973 4.53919 17.9206 4.59993C17.8682 4.66067 17.8042 4.71051 17.7324 4.74658C17.6605 4.78265 17.5821 4.80423 17.5018 4.81008C17.4214 4.81594 17.3407 4.80595 17.2643 4.78068C15.6835 4.2713 13.8631 4.00211 12 4.00211C10.1371 4.00211 8.31683 4.2713 6.73572 4.78058C6.6593 4.80584 6.57859 4.81584 6.49826 4.80998C6.41793 4.80413 6.33955 4.78255 6.26766 4.74648C6.19577 4.71041 6.13178 4.66057 6.07938 4.59983C6.02697 4.53909 5.9872 4.46865 5.96234 4.39258C5.93748 4.3165 5.92804 4.23629 5.93455 4.15658C5.94105 4.07686 5.96339 3.99921 6.00026 3.92811C6.03714 3.857 6.08782 3.79385 6.14939 3.74228C6.21097 3.69072 6.28221 3.65176 6.35901 3.62766C7.07335 3.39986 7.80243 3.22049 8.54125 3.0908L7.95721 1.35091C7.9409 1.30328 7.90744 1.26332 7.86326 1.23869C7.81907 1.21406 7.76729 1.20651 7.71784 1.21748C6.72165 1.43021 5.74632 1.72989 4.80324 2.11303C4.7749 2.1245 4.7495 2.14213 4.72892 2.16463C4.70834 2.18713 4.6931 2.21391 4.68432 2.24303L1.2282 13.6819C1.21735 13.7205 1.21792 13.7614 1.22985 13.7997C1.24177 13.838 1.26454 13.8721 1.29545 13.8979C2.81114 15.206 4.87221 16.2031 7.25577 16.7817C7.29981 16.7913 7.34583 16.7859 7.38642 16.7664C7.42701 16.7469 7.45982 16.7145 7.47958 16.6742L8.33423 14.9769C7.66607 14.8512 7.00643 14.6844 6.35912 14.4775C6.28231 14.4534 6.21107 14.4144 6.1495 14.3629C6.08792 14.3113 6.03724 14.2481 6.00037 14.177C5.96349 14.1059 5.94116 14.0283 5.93465 13.9486C5.92814 13.8688 5.93758 13.7886 5.96244 13.7126C5.9873 13.6365 6.02707 13.5661 6.07948 13.5053C6.13188 13.4446 6.19587 13.3947 6.26776 13.3587C6.33966 13.3226 6.41803 13.301 6.49836 13.2952C6.57869 13.2893 6.6594 13.2993 6.73583 13.3246C8.31653 13.8338 10.1369 14.103 12 14.103C13.8631 14.103 15.6834 13.8338 17.2641 13.3246C17.4179 13.2754 17.5851 13.2889 17.729 13.362C17.8729 13.4351 17.9817 13.5618 18.0316 13.7144C18.0814 13.8671 18.0683 14.0331 17.9951 14.1761C17.9219 14.3192 17.7945 14.4275 17.6409 14.4775C16.9936 14.6844 16.3339 14.8512 15.6658 14.9769L16.5205 16.6742C16.5403 16.7145 16.5731 16.747 16.6137 16.7665C16.6543 16.786 16.7003 16.7914 16.7443 16.7818C19.1279 16.2031 21.189 15.206 22.7047 13.8979C22.7355 13.8721 22.7582 13.838 22.7701 13.7997C22.782 13.7615 22.7826 13.7206 22.7718 13.682H22.7719Z" fill="white"/>
</svg>
