<svg width="54" height="41" viewBox="0 0 54 41" fill="none" xmlns="http://www.w3.org/2000/svg">
<path d="M12.443 35.4611C12.4463 35.4608 12.4497 35.4596 12.4529 35.4587C12.4633 35.4557 12.4693 35.4678 12.4688 35.4786C12.4658 35.5391 12.4829 35.5921 12.5367 35.6264C12.8615 35.8186 13.1975 35.9958 13.4966 36.2294C13.7476 36.4254 14.1205 36.4216 14.2866 36.7419C14.2903 36.7495 14.3235 36.7532 14.3309 36.7457C14.4085 36.6779 14.4638 36.7608 14.5081 36.7909C14.9069 37.0396 15.3462 37.2092 15.7671 37.409C16.092 37.5672 16.4279 37.7218 16.775 37.8386C17.0851 37.9441 17.3878 38.076 17.6943 38.1966C17.7902 38.2343 17.7866 38.2833 17.7349 38.3699C17.4875 38.7732 17.1589 39.1123 16.9005 39.508C16.6753 39.8547 16.3873 40.16 16.1769 40.518C16.0218 40.7818 15.6969 40.9175 15.5197 40.8421C15.2613 40.7366 14.9992 40.7743 14.7444 40.7517C14.1463 40.7064 13.5556 40.5972 12.9686 40.4954C12.496 40.4125 12.0235 40.3145 11.5583 40.1902C11.1448 40.0809 10.7276 39.9791 10.3215 39.8472C10.0483 39.7605 9.77141 39.6889 9.5056 39.5721C9.23239 39.4515 8.92966 39.4025 8.65276 39.2744C8.43863 39.1764 8.20604 39.1199 7.99191 39.0106C7.82208 38.9239 7.61903 38.9013 7.45658 38.8033C7.25722 38.6827 7.03571 38.5998 6.83265 38.5094C6.6259 38.4189 6.42285 38.3097 6.22349 38.2041C5.8986 38.0345 5.55894 37.8951 5.25251 37.6878C4.95716 37.4843 4.62858 37.3261 4.35538 37.0962C4.18924 36.9605 3.99357 36.9002 3.83113 36.7721C3.52101 36.5309 3.19612 36.3161 2.88969 36.0674C2.4282 35.6905 1.95933 35.3174 1.54952 34.8878C1.31693 34.6429 1.05112 34.4356 0.822218 34.1831C0.600703 33.9381 0.405032 33.663 0.157674 33.4407C0.102295 33.3879 0.102295 33.3126 0.102295 33.2372C0.105987 32.7284 0.117063 32.2235 0.201977 31.7147C0.301658 31.1117 0.268431 30.4975 0.349653 29.887C0.405032 29.4875 0.46041 29.0843 0.486254 28.681C0.515789 28.21 0.578552 27.7389 0.663466 27.2754C0.722536 26.9513 0.678233 26.6159 0.803758 26.3031C0.833293 26.2315 0.888672 26.1674 0.881288 26.077C0.859137 25.8509 0.958818 25.6398 0.947743 25.4137C0.940359 25.1763 1.0142 24.9426 1.06958 24.7165C1.13972 24.4226 1.1065 24.1173 1.19879 23.8272C1.22464 23.7442 1.28371 23.684 1.2874 23.586C1.29478 23.3448 1.33539 23.1074 1.39077 22.8699C1.49045 22.4479 1.53845 22.0107 1.64551 21.5886C1.77104 21.0837 1.86334 20.5711 2.00363 20.0662C2.15131 19.5348 2.23622 18.9846 2.40236 18.457C2.46143 18.2686 2.40974 18.0575 2.51681 17.903C2.62387 17.7485 2.62018 17.5751 2.67925 17.4131C2.7014 17.3566 2.67925 17.2887 2.70878 17.2284C2.84169 16.9609 2.87492 16.6594 2.96722 16.3768C3.08167 16.0376 3.2035 15.7022 3.28103 15.3517C3.34749 15.0578 3.51362 14.7902 3.55423 14.5C3.59854 14.1759 3.85328 13.9423 3.85328 13.6144C3.85328 13.5993 3.87543 13.5843 3.8865 13.5692C3.94558 13.5014 3.95665 13.4147 3.9788 13.328C4.05633 12.9964 4.19293 12.6836 4.32584 12.3746C4.44029 12.1108 4.5732 11.8357 4.65073 11.5756C4.7578 11.2139 4.92393 10.8785 5.05315 10.528C5.20821 10.1097 5.37435 9.68383 5.61063 9.29567C5.72877 9.10347 5.75092 8.86982 5.87645 8.68517C5.99828 8.50051 6.03889 8.27063 6.17918 8.09727C6.3527 7.88623 6.41177 7.61113 6.5373 7.37371C6.63698 7.18152 6.78835 7.0157 6.85849 6.8009C6.88434 6.72176 6.91018 6.63131 6.96187 6.56725C7.13539 6.34113 7.32737 6.1301 7.43443 5.85499C7.4492 5.81354 7.4935 5.7947 7.53042 5.77208C7.68548 5.67787 7.88115 5.6025 7.98453 5.48191C8.23927 5.18419 8.59738 5.0636 8.88535 4.82995C8.94442 4.78096 8.9998 4.7282 9.07364 4.68675C9.43914 4.48701 9.80095 4.27974 10.1517 4.0574C10.2587 3.98957 10.388 3.98203 10.4803 3.89535C10.6685 3.722 10.9048 3.63155 11.119 3.50719C11.4365 3.32253 11.7835 3.18687 12.1121 3.01728C12.4148 2.859 12.7249 2.7158 13.0498 2.60274C13.3636 2.49346 13.6664 2.34648 13.9728 2.22589C14.2608 2.11283 14.5635 2.04123 14.8478 1.90556C15.2022 1.73975 15.5972 1.66061 15.9775 1.55509C16.4169 1.4345 16.8525 1.29506 17.3029 1.21969C17.6684 1.15562 18.0265 1.05387 18.3957 0.997345C18.7206 0.948354 19.0529 0.937049 19.3741 0.869215C19.5033 0.842835 19.6067 0.899363 19.6731 1.00865C19.8097 1.22346 19.9242 1.44957 20.0128 1.69076C20.0571 1.81135 20.0239 1.92817 19.8909 1.95455C19.4811 2.03369 19.0935 2.1882 18.6911 2.28995C18.3034 2.38794 17.9268 2.50476 17.554 2.64797C17.1479 2.80248 16.7381 2.94568 16.3282 3.09265C15.9406 3.23209 15.564 3.40921 15.1948 3.59387C15.0545 3.6617 14.8884 3.67301 14.7703 3.76345C14.2719 4.12146 13.6885 4.32497 13.1754 4.6679C12.7914 4.92416 12.389 5.15028 12.0087 5.41031C11.5915 5.69295 11.1891 5.9982 10.7941 6.30722C10.7239 6.36375 10.6206 6.34867 10.5726 6.42404C10.484 6.55971 10.351 6.65392 10.2255 6.74437C9.68281 7.12876 9.25085 7.64505 8.70445 8.0219C8.68599 8.03698 8.66384 8.05582 8.65646 8.07843C8.62323 8.16511 8.60477 8.2254 8.73768 8.26686C8.90012 8.31585 8.95919 8.17641 9.06995 8.1425C9.40222 8.03321 9.69757 7.84101 9.99662 7.67143C10.351 7.4717 10.7461 7.3511 11.0894 7.12876C11.1965 7.06093 11.3109 6.99309 11.4254 6.9441C11.6543 6.84989 11.8869 6.76698 12.1195 6.68784C12.2081 6.65769 12.245 6.56725 12.3336 6.52956C12.8874 6.29968 13.4301 6.05096 13.9839 5.81354C14.1796 5.73063 14.3789 5.6628 14.582 5.59873C14.7703 5.53843 14.9659 5.43668 15.1542 5.35755C15.6083 5.16535 16.0846 5.01461 16.5571 4.87517C17.074 4.72443 17.5835 4.53977 18.1151 4.42672C18.6431 4.31366 19.1599 4.14784 19.6916 4.04233C20.1789 3.94434 20.6699 3.84259 21.1647 3.78606C21.7923 3.71069 22.4125 3.59387 23.0438 3.53734C23.2284 3.52227 23.413 3.52227 23.5939 3.50342C24.288 3.42052 24.9821 3.37153 25.6799 3.36399C27.1308 3.34891 28.578 3.33384 30.0252 3.43559C30.1766 3.4469 30.3317 3.45066 30.483 3.48081C30.9187 3.57503 31.3691 3.59764 31.8084 3.63909C32.4841 3.70693 33.1486 3.84636 33.8168 3.93681C34.4002 4.01595 34.9724 4.17046 35.5447 4.3212C35.9951 4.43802 36.4418 4.56238 36.8922 4.67544C37.1469 4.7395 37.3611 4.90909 37.6269 4.9317C37.7081 4.93924 37.7967 4.92416 37.8779 4.96939C38.1733 5.1352 38.5056 5.1955 38.8194 5.30479C38.9966 5.36508 39.1516 5.47437 39.3326 5.52336C39.4507 5.55351 39.5688 5.57612 39.6796 5.63265C39.9233 5.75324 40.178 5.85499 40.4254 5.96051C40.7687 6.10748 41.1121 6.24692 41.4517 6.39389C41.7544 6.52579 42.0498 6.6803 42.3562 6.79713C42.6442 6.90641 42.8989 7.076 43.1832 7.19282C43.3678 7.26819 43.545 7.38502 43.7259 7.47923C43.9437 7.59229 44.1837 7.66766 44.3831 7.80333C44.6526 7.98422 44.948 8.10104 45.2322 8.24425C45.2839 8.27063 45.3762 8.35353 45.4205 8.24425C45.4537 8.16134 45.4427 8.07089 45.3504 7.99929C45.1879 7.86739 45.0181 7.75057 44.8778 7.57721C44.6637 7.30965 44.3572 7.13253 44.0988 6.90265C43.8145 6.65015 43.5192 6.39766 43.198 6.18662C42.9912 6.05096 42.8288 5.85122 42.622 5.72309C42.131 5.41784 41.6843 5.04099 41.1674 4.77719C41.0932 4.7411 41.0291 4.66355 40.9395 4.7166C40.9315 4.72134 40.9226 4.72477 40.9136 4.72273C40.9012 4.71994 40.8914 4.71024 40.8861 4.69872C40.8579 4.63768 40.8221 4.5806 40.765 4.536C40.5029 4.34004 40.2075 4.19307 39.9196 4.0574C39.4175 3.81998 38.9154 3.57879 38.4059 3.36022C37.9924 3.17933 37.5715 3.01728 37.1432 2.88538C37.0509 2.85524 36.9919 2.77233 36.8996 2.76479C36.4344 2.71203 36.0246 2.46708 35.5742 2.35779C35.109 2.24473 34.6512 2.07138 34.1786 1.95455C34.0162 1.9131 33.994 1.8415 34.0642 1.70583C34.1713 1.49856 34.3005 1.29506 34.378 1.07648C34.4371 0.910669 34.5257 0.85791 34.6771 0.876752C35.3933 0.970966 36.1169 1.00111 36.8184 1.21215C37.2245 1.33651 37.649 1.3855 38.0552 1.5174C38.3985 1.63046 38.7529 1.69076 39.0852 1.83396C39.2439 1.90179 39.4064 1.94702 39.5688 2.00731C39.831 2.10153 40.0931 2.1882 40.3515 2.29749C40.6579 2.42562 40.9533 2.58013 41.2634 2.70073C41.6474 2.85524 42.024 3.02482 42.3895 3.21325C42.7734 3.41298 43.1537 3.62025 43.534 3.82375C43.6262 3.87274 43.7149 3.93304 43.8035 3.97826C44.0139 4.08755 44.2022 4.23452 44.4126 4.35135C44.6304 4.47194 44.852 4.58499 45.055 4.7282C45.3725 4.95054 45.7159 5.12013 46.0186 5.36508C46.1884 5.50075 46.3952 5.58743 46.5059 5.79093C46.5212 5.8221 46.556 5.82219 46.5906 5.81982C46.7434 5.80933 46.7517 5.97027 46.8087 6.06603C46.9896 6.37505 47.1742 6.68407 47.344 7.00063C47.5249 7.34357 47.6689 7.70911 47.8683 8.03698C48.1119 8.43644 48.2633 8.88113 48.4922 9.28813C48.6509 9.57831 48.7728 9.88733 48.8872 10.2001C48.9795 10.4526 49.105 10.6863 49.2047 10.9312C49.3893 11.3872 49.5776 11.8432 49.7548 12.2992C49.9357 12.7665 50.0834 13.2451 50.268 13.7124C50.4009 14.0478 50.5006 14.3945 50.6187 14.7374C50.7221 15.0389 50.8513 15.3366 50.9252 15.6457C50.9953 15.9358 51.0987 16.2147 51.1725 16.5011C51.2574 16.8365 51.4014 17.1644 51.4679 17.4998C51.5602 17.9558 51.682 18.408 51.8038 18.8527C51.8924 19.173 51.9626 19.4971 52.0586 19.8174C52.2026 20.296 52.2579 20.7972 52.3982 21.2796C52.4905 21.6075 52.557 21.9467 52.6161 22.2783C52.701 22.7569 52.808 23.2355 52.8819 23.7179C52.9372 24.0947 53.0037 24.4678 53.0849 24.8409C53.1218 25.0105 53.0702 25.1876 53.1329 25.3421C53.2806 25.6888 53.2658 26.0619 53.3286 26.4199C53.4098 26.8797 53.432 27.347 53.5021 27.8105C53.5833 28.3456 53.683 28.8845 53.6904 29.4234C53.6978 29.8304 53.8492 30.2111 53.8344 30.6218C53.827 30.7914 53.8344 30.9723 53.8528 31.1457C53.9341 31.8353 53.9968 32.5249 54.0005 33.2184C54.0005 33.3879 53.9378 33.5236 53.827 33.614C53.4283 33.9344 53.1551 34.3753 52.7711 34.7069C52.6936 34.7748 52.6161 34.8464 52.5459 34.918C52.3732 35.0943 52.1236 35.2034 52.0449 35.4684C52.0443 35.4701 52.0457 35.4719 52.0475 35.4719C51.9995 35.4682 51.9441 35.4531 51.9035 35.487C51.7226 35.6453 51.49 35.7546 51.3387 35.9242C51.0064 36.301 50.567 36.5158 50.1905 36.8286C49.9689 37.0133 49.7216 37.1866 49.4447 37.3072C49.3081 37.3675 49.1272 37.4127 49.0349 37.5183C48.8688 37.6991 48.6509 37.7896 48.459 37.8951C47.931 38.1891 47.4068 38.5094 46.8345 38.7016C46.4986 38.8146 46.1958 38.9955 45.8672 39.1237C45.3873 39.3083 44.9 39.4779 44.42 39.655C43.9327 39.8321 43.4269 39.9527 42.9248 40.0846C42.3599 40.2316 41.7951 40.3786 41.2228 40.4879C41.1084 40.5105 40.9865 40.4879 40.8795 40.5255C40.5546 40.6461 40.2075 40.6688 39.8716 40.6914C39.6021 40.7102 39.3289 40.7253 39.0741 40.7931C38.812 40.8647 38.5499 40.729 38.2988 40.8421C38.2434 40.8647 38.2176 40.8082 38.1807 40.7743C38.0256 40.6311 37.9001 40.4615 37.7819 40.2881C37.5494 39.9414 37.2651 39.6324 37.0362 39.2782C36.9229 39.0974 36.7381 38.8578 36.609 38.688C36.5532 38.6147 36.4894 38.5464 36.4307 38.4755C36.3052 38.3247 36.3163 38.2004 36.5045 38.1438C36.7371 38.076 36.9623 37.9931 37.1765 37.8838C37.3131 37.816 37.4681 37.7896 37.601 37.718C37.937 37.5409 38.2951 37.4165 38.6311 37.2432C39.0704 37.017 39.5282 36.8286 39.9528 36.5686C40.3958 36.301 40.8536 36.0561 41.2856 35.7697C41.6105 35.5548 41.9354 35.3438 42.2602 35.1328C42.5187 34.967 42.7365 34.7521 42.9986 34.5863C43.2054 34.4534 43.4363 34.2312 43.6367 34.0889C43.771 33.9935 43.8932 33.8791 44.0176 33.7723C44.1726 33.6404 44.3277 33.4972 44.4717 33.3427C44.7818 33.0073 45.199 32.7812 45.4648 32.3893C45.5645 32.2423 45.7786 32.2008 45.8488 32.0576C46.0075 31.7373 46.3841 31.6092 46.5022 31.2625C46.5059 31.2512 46.5207 31.2474 46.5318 31.2399C46.6947 31.1567 46.5422 30.8314 46.406 30.9536C46.3819 30.9753 46.3548 31.0037 46.3213 31.0401C46.0112 31.3793 45.5977 31.5564 45.2433 31.8278C44.9 32.0916 44.516 32.3064 44.1505 32.54C43.641 32.8603 43.1352 33.1807 42.5741 33.3917C42.5261 33.4105 42.4928 33.4407 42.4781 33.4935C42.4633 33.5424 42.4264 33.5764 42.3784 33.599C41.592 33.9344 40.8352 34.3376 40.0451 34.6617C39.3695 34.9406 38.6717 35.1554 37.9998 35.4418C37.937 35.4682 37.8779 35.5134 37.8152 35.5209C37.4386 35.5775 37.0842 35.7244 36.715 35.8111C36.283 35.9129 35.8622 36.0598 35.4265 36.1465C35.0684 36.2181 34.7029 36.2671 34.3522 36.3726C33.9387 36.5008 33.4993 36.497 33.0785 36.61C32.8939 36.659 32.6945 36.6703 32.4988 36.6854C32.2662 36.7043 32.0484 36.8022 31.8158 36.8022C31.4282 36.8022 31.0442 36.8512 30.6639 36.8927C30.0806 36.9567 29.4936 36.9907 28.9103 37.0246C28.1682 37.0623 27.4261 37.051 26.6841 37.0698C26.3223 37.0811 25.9641 37.017 25.5986 37.0283C25.1593 37.0397 24.72 36.9869 24.2806 36.9605C23.5976 36.9228 22.9183 36.8588 22.239 36.7683C21.7111 36.6967 21.1794 36.644 20.6552 36.5347C20.4152 36.4857 20.1715 36.4593 19.9316 36.4141C19.3445 36.301 18.7612 36.1804 18.1853 36.0184C17.7312 35.8902 17.2734 35.747 16.8156 35.6302C16.1695 35.4682 15.5677 35.1893 14.9327 35.0122C14.5044 34.8954 14.1094 34.6692 13.6885 34.511C13.3046 34.3678 12.9317 34.1831 12.5662 33.9947C12.0419 33.7309 11.5325 33.4407 11.0045 33.1769C10.7276 33.0375 10.4913 32.8302 10.2034 32.7058C9.99293 32.6154 9.78249 32.4948 9.60528 32.3554C9.29885 32.1179 8.96658 31.9182 8.66015 31.677C8.33895 31.4283 7.96976 31.2399 7.68179 30.9422C7.61164 30.8706 7.52304 30.8442 7.45289 30.9158C7.38275 30.9874 7.40859 31.0778 7.47874 31.1494C7.80732 31.4886 8.05467 31.9107 8.44971 32.182C8.48294 32.2046 8.4977 32.2574 8.53093 32.2838C8.66015 32.393 8.70445 32.5702 8.84843 32.6644C8.97765 32.7473 9.11425 32.8302 9.20655 32.9546C9.4133 33.2372 9.71603 33.4143 9.96708 33.6442C10.447 34.0889 10.9861 34.4733 11.5066 34.8727C11.5731 34.9217 11.6063 35.0046 11.6838 35.0348C11.7759 35.0703 11.8629 35.1127 11.9471 35.1631C12.0295 35.2124 12.0992 35.279 12.17 35.3438C12.248 35.4151 12.3327 35.4695 12.443 35.4611ZM32.0816 19.5762C31.9943 19.6709 31.8524 19.7744 31.7883 19.8861C31.785 19.8918 31.7819 19.8978 31.7789 19.9041C31.6977 20.0775 31.5648 20.2169 31.4688 20.3865C31.2657 20.7445 31.1033 21.1213 30.9519 21.5057C30.8338 21.8072 30.8301 22.1275 30.723 22.4253C30.675 22.5609 30.6639 22.7154 30.6676 22.8699C30.675 23.2355 30.6787 23.5973 30.6676 23.9628C30.6566 24.2831 30.7784 24.5733 30.8485 24.8748C30.9261 25.2027 31.0516 25.523 31.1919 25.832C31.2657 25.9978 31.3359 26.1599 31.454 26.2993C31.4946 26.3483 31.5242 26.4011 31.55 26.4576C31.7088 26.7968 31.982 27.0493 32.233 27.3017C32.4951 27.5655 32.7979 27.803 33.1449 27.9688C33.4846 28.1308 33.8168 28.2853 34.1786 28.3946C34.5958 28.519 35.0204 28.4549 35.4413 28.4587C35.6443 28.4587 35.8548 28.4059 36.0541 28.3494C36.4639 28.2326 36.8479 28.0441 37.2097 27.8143C37.2302 27.8013 37.2476 27.7878 37.2628 27.7737C37.3371 27.7041 37.4349 27.673 37.5124 27.607C37.7044 27.445 37.9149 27.3017 38.0773 27.1133C38.284 26.8721 38.4613 26.6046 38.6311 26.3332C38.9375 25.8471 39.1369 25.3082 39.2809 24.7504C39.303 24.66 39.303 24.5658 39.3252 24.4753C39.4839 23.797 39.5208 23.1111 39.3658 22.4366C39.2993 22.1426 39.4027 21.7884 39.1258 21.551C39.1078 21.5325 39.1192 21.5005 39.113 21.4755C38.9264 20.7243 38.4827 20.1207 37.9998 19.5536C37.7303 19.2371 37.3906 18.9921 37.0177 18.7962C36.7888 18.6793 36.571 18.5286 36.3273 18.457C35.8548 18.3176 35.3711 18.2836 34.8764 18.2799C34.3632 18.2761 33.8833 18.3967 33.4366 18.6077C32.9345 18.8451 32.4619 19.1466 32.0816 19.5762ZM23.365 23.2506C23.3798 23.0471 23.3355 22.7079 23.2764 22.38C22.9921 20.8538 22.2685 19.6177 20.9173 18.8414C19.8651 18.2346 18.7538 18.1857 17.6352 18.6228C16.7971 18.9507 16.1473 19.5386 15.6526 20.2923C14.9142 21.4228 14.6521 22.674 14.7961 24.0156C14.9032 25.0105 15.2391 25.9112 15.8446 26.7026C16.5941 27.6824 17.5724 28.2816 18.7981 28.372C19.9906 28.4587 21.0244 28.0253 21.8624 27.1698C22.8777 26.1335 23.3355 24.8447 23.365 23.2506Z" fill="#F9F9F9"/>
</svg>
