<svg width="40" height="41" viewBox="0 0 40 41" fill="none" xmlns="http://www.w3.org/2000/svg">
<path d="M19.9951 14.1933C16.3227 14.1933 13.3257 17.1903 13.3257 20.8628C13.3257 24.5353 16.3227 27.5323 19.9951 27.5323C23.6675 27.5323 26.6645 24.5353 26.6645 20.8628C26.6645 17.1903 23.6675 14.1933 19.9951 14.1933ZM39.9983 20.8628C39.9983 18.1009 40.0233 15.3641 39.8682 12.6072C39.7131 9.40505 38.9826 6.56313 36.6411 4.22155C34.2945 1.87496 31.4576 1.14947 28.2555 0.994369C25.4937 0.839264 22.7569 0.864281 20.0001 0.864281C17.2383 0.864281 14.5015 0.839264 11.7447 0.994369C8.54259 1.14947 5.70072 1.87997 3.35918 4.22155C1.01264 6.56813 0.287164 9.40505 0.132062 12.6072C-0.02304 15.3691 0.00197648 18.1059 0.00197648 20.8628C0.00197648 23.6197 -0.02304 26.3615 0.132062 29.1184C0.287164 32.3205 1.01764 35.1625 3.35918 37.504C5.70572 39.8506 8.54259 40.5761 11.7447 40.7312C14.5065 40.8863 17.2433 40.8613 20.0001 40.8613C22.7619 40.8613 25.4987 40.8863 28.2555 40.7312C31.4576 40.5761 34.2995 39.8456 36.6411 37.504C38.9876 35.1574 39.7131 32.3205 39.8682 29.1184C40.0283 26.3615 39.9983 23.6247 39.9983 20.8628ZM19.9951 31.1247C14.3164 31.1247 9.73337 26.5416 9.73337 20.8628C9.73337 15.184 14.3164 10.6009 19.9951 10.6009C25.6738 10.6009 30.2569 15.184 30.2569 20.8628C30.2569 26.5416 25.6738 31.1247 19.9951 31.1247ZM30.6771 12.5772C29.3513 12.5772 28.2806 11.5065 28.2806 10.1806C28.2806 8.85468 29.3513 7.78396 30.6771 7.78396C32.003 7.78396 33.0737 8.85468 33.0737 10.1806C33.0741 10.4954 33.0124 10.8072 32.8921 11.0982C32.7718 11.3891 32.5953 11.6535 32.3726 11.8761C32.15 12.0987 31.8857 12.2753 31.5947 12.3956C31.3038 12.5159 30.992 12.5776 30.6771 12.5772Z" fill="#F9F9F9"/>
</svg>
