<svg width="24" height="25" viewBox="0 0 24 25" fill="none" xmlns="http://www.w3.org/2000/svg">
<path fill-rule="evenodd" clip-rule="evenodd" d="M11.5375 6.36703C1.91764 11.1999 0.443621 11.9764 0.375806 12.2471C0.213618 12.8952 0.463261 13.0402 4.48868 14.6344L8.31275 16.1489L9.82469 19.9892C10.8953 22.7083 11.4095 23.8686 11.5861 23.9634C12.2684 24.3294 12.0714 24.6729 18.0184 12.7452L23.6036 1.54354L23.347 1.19772C23.206 1.00746 22.9849 0.839875 22.8559 0.825259C22.7268 0.810643 17.6335 3.30438 11.5375 6.36703ZM17.3708 5.90911C16.5899 6.68102 14.2979 8.94723 12.2775 10.9453L8.60427 14.5782L5.97777 13.5504C4.53327 12.9852 3.26826 12.4787 3.16647 12.4249C3.03949 12.3577 5.43722 11.1062 10.825 8.42713C15.139 6.28218 18.696 4.52246 18.7296 4.51651C18.7632 4.51069 18.1517 5.13731 17.3708 5.90911ZM15.9441 13.4376C13.8001 17.7371 12.0239 21.2326 11.997 21.2057C11.9132 21.1216 9.83729 15.8462 9.83692 15.7161C9.83655 15.6145 19.71 5.62063 19.8107 5.62063C19.8281 5.62063 18.0881 9.13835 15.9441 13.4376Z" fill="white"/>
</svg>
