<svg width="49" height="41" viewBox="0 0 49 41" fill="none" xmlns="http://www.w3.org/2000/svg">
<path fill-rule="evenodd" clip-rule="evenodd" d="M32.8078 0.881442C30.4501 1.03487 28.2127 2.07208 26.5361 3.78873C25.0613 5.29884 24.1112 7.19224 23.7672 9.3069C23.6681 9.91601 23.6481 10.1911 23.6479 10.9486C23.6476 11.8063 23.6854 12.2362 23.8232 12.9448C23.8531 13.0988 23.8776 13.2341 23.8776 13.2455C23.8776 13.2676 23.804 13.2644 23.1419 13.2133C18.3582 12.8442 13.6918 11.1644 9.69599 8.37309C8.16299 7.30221 6.84568 6.17256 5.50917 4.78266C4.86013 4.10768 4.47469 3.67353 3.93128 3.0053L3.74824 2.78021C3.72194 2.74788 3.67152 2.75148 3.65009 2.78722C3.53949 2.97179 3.17962 3.74701 3.06138 4.05544C2.69391 5.0139 2.47098 6.01164 2.39426 7.04122C2.36974 7.37025 2.36996 8.19015 2.39464 8.53079C2.51987 10.2582 3.05912 11.8928 3.98366 13.3475C4.62782 14.361 5.5072 15.3029 6.46596 16.0062C6.58841 16.096 6.69577 16.176 6.70453 16.1839C6.72151 16.1992 6.57357 16.1927 6.20117 16.1617C4.95175 16.0576 3.6633 15.6735 2.5454 15.0719L2.3877 14.987C2.34056 14.9616 2.28343 14.9959 2.28354 15.0494C2.28402 15.2792 2.31969 15.8969 2.34746 16.1567C2.52119 17.7817 3.04985 19.2835 3.92859 20.6484C5.31024 22.7945 7.4609 24.3323 9.87073 24.8974C9.98201 24.9235 10.0855 24.9499 10.1006 24.9561C10.1566 24.979 9.48547 25.134 9.01542 25.2068C8.21161 25.3312 7.30706 25.3491 6.50466 25.2564C6.24945 25.227 5.81561 25.1603 5.7567 25.1415C5.72039 25.1299 5.72866 25.1628 5.84892 25.5082C6.51002 27.4068 7.80523 29.1474 9.42869 30.3189C10.9225 31.3968 12.6577 32.0217 14.46 32.1308C14.6471 32.1421 14.8166 32.1531 14.8365 32.1553C14.8928 32.1613 14.0988 32.7632 13.5087 33.1619C10.9117 34.9162 7.92987 36.0155 4.84002 36.3575C4.00263 36.4502 3.53706 36.4716 2.5316 36.4635C1.69811 36.4568 1.25132 36.434 0.667061 36.3684C0.521713 36.3521 0.400203 36.3414 0.397021 36.3446C0.393857 36.3479 0.545882 36.4495 0.734878 36.5704C4.28357 38.8407 8.28106 40.2549 12.4367 40.7101C12.9235 40.7634 13.4835 40.8094 13.853 40.8263C13.9896 40.8325 14.1261 40.8415 14.1565 40.8462C14.2672 40.8635 16.1174 40.8694 16.5017 40.8537C21.5058 40.6496 25.926 39.3308 29.8924 36.8585C32.3495 35.3269 34.5791 33.3531 36.4862 31.0213C39.4962 27.3411 41.6482 22.7979 42.6391 18.0316C42.9585 16.4953 43.1402 15.0833 43.231 13.4328C43.2553 12.9916 43.2618 11.1462 43.2398 10.9545C43.2314 10.8816 43.2617 10.8096 43.3196 10.7646L43.4892 10.6328C45.0552 9.41613 46.4 8.02413 47.5443 6.43534C47.7721 6.11907 48.1022 5.63381 48.1022 5.61521C48.1022 5.61041 47.9719 5.66379 47.8125 5.73386C46.5499 6.28905 45.1122 6.73268 43.7293 6.99379C43.3539 7.06467 42.6499 7.17491 42.5726 7.17491C42.5365 7.17491 42.6138 7.11337 42.8807 6.92969C44.1195 6.07723 45.1124 5.00745 45.8739 3.70499C46.0862 3.34192 46.4209 2.64974 46.5619 2.28236C46.6787 1.978 46.7991 1.61864 46.7843 1.61864C46.7791 1.61864 46.6534 1.69032 46.505 1.77792C45.2817 2.50019 43.8873 3.11959 42.5077 3.55351C42.0409 3.70035 41.2349 3.91467 40.8311 3.99934L40.7357 4.01932C40.6377 4.03987 40.5363 4.00602 40.4703 3.93075C40.3614 3.80667 39.9312 3.39507 39.7147 3.20787C38.726 2.35311 37.4974 1.67322 36.2287 1.27878C35.1808 0.953009 33.9337 0.808148 32.8078 0.881442Z" fill="#F9F9F9"/>
</svg>
